<?xml version="1.0" encoding="utf-8"?>
<!-- Generator: Adobe Illustrator 26.0.1, SVG Export Plug-In . SVG Version: 6.00 Build 0)  -->
<svg version="1.1" id="Layer_1" xmlns="http://www.w3.org/2000/svg" xmlns:xlink="http://www.w3.org/1999/xlink" x="0px" y="0px"
	 viewBox="0 0 510 510" style="enable-background:new 0 0 510 510;" xml:space="preserve">
<style type="text/css">
	.st0{fill-rule:evenodd;clip-rule:evenodd;fill:#53DC72;}
	.st1{fill:#53DC72;}
</style>
<path class="st0" d="M7,118.3c0-2.9,1.5-5.5,4-6.9L190,8.1c2.5-1.4,5.5-1.4,8,0l179,103.3c2.5,1.4,4,4.1,4,6.9V271
	c7.5,2,13.8,6.9,17.9,13.9l0,0L499,458.2l0,0c5.4,9.4,5.4,20.5,0,29.9l0,0c-5.4,9.4-15,14.9-25.9,14.9H273
	c-10.8,0-20.4-5.6-25.9-14.9l0,0c-5.4-9.4-5.4-20.5,0-29.9l44.3-76.8L198,435.3c-2.5,1.4-5.5,1.4-8,0L11,332c-2.5-1.4-4-4.1-4-6.9
	L7,118.3z M78.6,90.9L31,118.3l163,94.1l47.6-27.5L78.6,90.9z M130.5,60.9c-8,4.6-27.9,16.1-35.9,20.7l163,94.1l35.9-20.7
	L130.5,60.9z M357,118.3L194,24.2l-47.6,27.5l163,94.1L357,118.3z M365,271c0-25,0-110.4,0-138.8l-47.5,27.5v76.8
	c0,2.9-1.5,5.5-4,6.9l-51.9,30c-2.5,1.4-5.5,1.4-8,0s-4-4.1-4-6.9v-67.5L202,226.3v188.2l105.4-60.9l39.7-68.8
	C351.2,277.9,357.5,273,365,271z M373,285.9c-5,0-9.5,2.6-12,6.9L261,466.2c-2.5,4.4-2.5,9.5,0,13.9c2.5,4.4,7,6.9,12,6.9h200.1
	c5,0,9.5-2.6,12-6.9c2.5-4.4,2.5-9.5,0-13.9L385,292.9l0,0C382.5,288.5,378.1,285.9,373,285.9L373,285.9z M23,132.2v188.2l163,94.1
	V226.3L23,132.2z M301.5,168.9l-35.9,20.7v62.9l35.9-20.7V168.9z M379.6,428.4c8.4,2.8,14.4,10.7,14.4,20c0,11.6-9.5,21.1-21.1,21.1
	c-11.6,0-21.1-9.5-21.1-21.1c0-9.3,6.1-17.2,14.4-20c-6.6-2.6-11.3-8.8-11.6-16.3l-2.6-71.5l0,0c-0.2-5.1,1.6-9.6,5.1-13.3l0,0
	c3.6-3.7,8-5.6,13.1-5.6h5.2c5.1,0,9.6,1.9,13.1,5.6c3.6,3.7,5.3,8.2,5.1,13.3l-2.6,71.5C391,419.5,386.2,425.8,379.6,428.4
	L379.6,428.4z M373,453.5c2.8,0,5.1-2.3,5.1-5.1s-2.3-5.1-5.1-5.1s-5.1,2.3-5.1,5.1S370.2,453.5,373,453.5z M373,413.6
	c1.2,0,2.2-0.9,2.2-2.1l2.6-71.5v0c0-0.6-0.2-1.2-0.6-1.6l0,0c-0.4-0.4-1-0.7-1.6-0.7h-5.2c-0.6,0-1.2,0.2-1.6,0.7
	c-0.4,0.5-0.6,1-0.6,1.7l2.6,71.4v0C370.9,412.7,371.8,413.6,373,413.6L373,413.6z"/>
<path class="st1" d="M78.7,81.8C80.3,82.6,255,184.7,255,184.7l4.1,80.2l51.3-27.1v-84.5L136.3,49.7L78.7,81.8z"/>
<path class="st0" d="M368.2,330.4c0,0-11.7,26.1-11.7,31c0,5,7,49.8,7.3,50.9c0.3,1,9.2,14.3,9.2,14.3l-8,14.3l-3.3,7.4l11.3,9.3
	c0,0,12.7,2.3,13-1.6c0.3-3.9-4.7-18.5-4.7-18.5s-5.7-9.7-5.7-11s-1.5-0.5,2.5-5.7c4-5.2,7.4-2.3,7.9-16.7
	c0.5-14.3-2.6-52.2-2.6-58.4s-0.5-15.4-0.5-15.4H368.2z"/>
</svg>
