<svg xmlns="http://www.w3.org/2000/svg"  viewBox="0 0 50 50" width="150px" height="150px"><path d="M 9.2832031 4 C 7.488935 4 5.9052102 5.2051958 5.4277344 6.9355469 L 2 19.365234 L 2 19.5 C 2 21.333655 2.770342 22.991752 4 24.175781 L 4 43 C 4 44.64497 5.3550302 46 7 46 L 43 46 C 44.64497 46 46 44.64497 46 43 L 46 24.175781 C 47.229658 22.991752 48 21.333655 48 19.5 L 48 19.365234 L 44.570312 6.9355469 C 44.092963 5.2056548 42.509782 4 40.714844 4 L 9.2832031 4 z M 9.2832031 6 L 14.853516 6 L 13.197266 18 L 4.4511719 18 L 7.3554688 7.46875 C 7.5959929 6.597101 8.3794712 6 9.2832031 6 z M 16.871094 6 L 24 6 L 24 18 L 15.216797 18 L 16.871094 6 z M 26 6 L 33.128906 6 L 34.783203 18 L 26 18 L 26 6 z M 35.146484 6 L 40.714844 6 C 41.619905 6 42.401927 6.596642 42.642578 7.46875 L 45.548828 18 L 36.802734 18 L 35.146484 6 z M 4.0644531 20 L 12.949219 20 C 12.699714 22.256206 10.826202 24 8.5 24 C 6.175282 24 4.3143567 22.254621 4.0644531 20 z M 15.099609 20 L 23.900391 20 C 23.642986 22.247621 21.820142 24 19.5 24 C 17.179858 24 15.357014 22.247621 15.099609 20 z M 26.099609 20 L 34.900391 20 C 34.642986 22.247621 32.820142 24 30.5 24 C 28.179858 24 26.357014 22.247621 26.099609 20 z M 37.050781 20 L 45.935547 20 C 45.685643 22.254621 43.824718 24 41.5 24 C 39.173798 24 37.300286 22.256206 37.050781 20 z M 25 22.748047 C 26.135537 24.654479 28.129125 26 30.5 26 C 32.82974 26 34.842617 24.748335 35.966797 22.888672 C 37.112706 24.749928 39.163177 26 41.5 26 C 42.385009 26 43.229585 25.821229 44 25.498047 L 44 43 C 44 43.56503 43.56503 44 43 44 L 7 44 C 6.4349698 44 6 43.56503 6 43 L 6 25.498047 C 6.7704149 25.821229 7.6149912 26 8.5 26 C 10.836823 26 12.887294 24.749928 14.033203 22.888672 C 15.157383 24.748335 17.17026 26 19.5 26 C 21.870875 26 23.864463 24.654479 25 22.748047 z M 35.5 29 C 31.916 29 29 31.916 29 35.5 C 29 39.084 31.916 42 35.5 42 C 39.084 42 42 39.084 42 35.5 C 42 35.331 41.986609 35.166 41.974609 35 L 36 35 L 36 37 L 39.724609 37 C 39.103609 38.742 37.453 40 35.5 40 C 33.019 40 31 37.981 31 35.5 C 31 33.019 33.019 31 35.5 31 C 36.996 31 38.313813 31.741187 39.132812 32.867188 L 40.564453 31.435547 C 39.371453 29.953547 37.546 29 35.5 29 z"/></svg>