<?xml version="1.0" encoding="utf-8"?>
<!-- Generator: Adobe Illustrator 26.0.1, SVG Export Plug-In . SVG Version: 6.00 Build 0)  -->
<svg version="1.1" id="Layer_35" xmlns="http://www.w3.org/2000/svg" xmlns:xlink="http://www.w3.org/1999/xlink" x="0px" y="0px"
	 viewBox="0 0 50 50" style="enable-background:new 0 0 50 50;" xml:space="preserve">
<style type="text/css">
	.st0{fill:#53DC72;}
</style>
<path class="st0" d="M19.2,31.7v2c0,0.1-0.1,0.2-0.2,0.2s-0.2-0.1-0.2-0.2v-2c0-0.1,0.1-0.2,0.2-0.2S19.2,31.6,19.2,31.7z M19,26.5
	c-0.1,0-0.2,0.1-0.2,0.2v2c0,0.1,0.1,0.2,0.2,0.2s0.2-0.1,0.2-0.2v-2C19.2,26.6,19.1,26.5,19,26.5z M48.5,35.4
	c0,6.3-5.1,11.4-11.4,11.4c-5.8,0-10.7-4.4-11.3-10.1L19.5,40c-0.1,0.1-0.3,0.1-0.5,0.1s-0.3,0-0.5-0.1L2,31.4
	c-0.3-0.2-0.5-0.5-0.5-0.9V12.7c0-0.4,0.2-0.7,0.5-0.9l16.5-8.5c0.3-0.1,0.6-0.1,0.9,0L36,11.9c0.3,0.2,0.5,0.5,0.5,0.9V24
	c0.2,0,0.4,0,0.5,0C43.4,24,48.5,29.1,48.5,35.4z M32.4,36.8l1.2,1.5c0.6,0.7,1.5,1.2,2.4,1.2c0.9,0,1.8-0.4,2.4-1.2l3.4-4.4
	c0.3-0.3,0.4-0.7,0.3-1.1c0-0.4-0.2-0.8-0.6-1c-0.3-0.3-0.7-0.4-1.1-0.3c-0.4,0-0.8,0.2-1,0.6l-3,4c-0.1,0.1-0.2,0.2-0.4,0.2
	c-0.2,0-0.3-0.1-0.4-0.2l-0.8-1.1c-0.3-0.4-0.7-0.6-1.2-0.6c-0.3,0-0.7,0.1-0.9,0.3C32,35.2,31.9,36.2,32.4,36.8z M28.8,10.4
	l-14.4,7.4l4.6,2.4l14.4-7.4L28.8,10.4z M4.7,12.7l4.6,2.4l14.4-7.4L19,5.3L4.7,12.7z M34.6,24.3v-9.9l-15.1,7.8
	c-0.1,0-0.2,0.1-0.3,0.1v1.4c0,0.1-0.1,0.2-0.2,0.2s-0.2-0.1-0.2-0.2v-1.4c-0.1,0-0.2,0-0.3-0.1l-5.3-2.7V25c0,0.1-0.1,0.3-0.2,0.3
	c-0.1,0-0.1,0.1-0.2,0.1c-0.1,0-0.1,0-0.2,0l-4.4-2.2c-0.1-0.1-0.2-0.2-0.2-0.3v-6l-4.7-2.4v15.5l15.4,7.9v-1.2
	c0-0.1,0.1-0.2,0.2-0.2s0.2,0.1,0.2,0.2v1.2l6.6-3.4C26.2,29.5,29.8,25.4,34.6,24.3z"/>
</svg>
