<?xml version="1.0" encoding="utf-8"?>
<!-- Generator: Adobe Illustrator 26.0.1, SVG Export Plug-In . SVG Version: 6.00 Build 0)  -->
<svg version="1.1" id="Layer_1" xmlns="http://www.w3.org/2000/svg" xmlns:xlink="http://www.w3.org/1999/xlink" x="0px" y="0px"
	 viewBox="0 0 512 512" style="enable-background:new 0 0 512 512;" xml:space="preserve">
<style type="text/css">
	.st0{fill:#53DC72;}
</style>
<g>
	<path class="st0" d="M97.6,226.4c-10.4,0-19.2,8.8-19.2,19.2c0,2.4,0.8,4.8,1.6,7.2c3.2,7.2,9.6,12,17.6,12
		c10.4,0,19.2-8.8,19.2-19.2S108,226.4,97.6,226.4z M290.4,226.4c-10.4,0-19.2,8.8-19.2,19.2s8.8,19.2,19.2,19.2s19.2-8.8,19.2-19.2
		S300.8,226.4,290.4,226.4z M343.2,212.8c-28-14.4-60.8-20.8-100.8-18.4c-5.6,0-11.2-1.6-15.2-4.8l-8-5.6
		c-26.4-22.4-38.4-32.8-68.8-28.8c-25.6,0.8-38.4,7.2-60.8,17.6c-9.6,4.8-20,9.6-33.6,15.2c-2.4,0.8-5.6,1.6-8.8,1.6H36
		c-2.4,0-4,1.6-4,3.2L29.6,204c-0.8,4.8-4,8.8-7.2,12c-0.8,0.8-1.6,2.4-1.6,4l1.6,10.4c0,1.6,1.6,3.2,3.2,3.2L54.4,248h7.2
		c0-0.8,0-1.6,0-2.4c0-20,16-36,36-36s36,16,36,36v2.4h120.8c0-0.8,0-1.6,0-2.4c0-20,16-36,36-36s36,16,36,36h14.4c2.4,0,4-1.6,4-4
		v-24C345.6,215.2,344.8,214.4,343.2,212.8L343.2,212.8z"/>
	<path class="st0" d="M116.8,308c-10.4,0-19.2,4-26.4,10.4C84,324.8,80,334.4,80,344c0,20,16.8,36.8,36.8,36.8s36.8-16.8,36.8-36.8
		C152.8,324,136.8,308,116.8,308z M420,308c-20,0-36.8,16.8-36.8,36.8s16.8,36.8,36.8,36.8s36.8-16.8,36.8-36.8
		C456.8,324,440,308,420,308z M492.8,258.4h13.6c1.6,0,3.2,0,4.8,0.8v-30.4c0-3.2-0.8-5.6-1.6-8L480,146.4
		c-4-9.6-12.8-15.2-22.4-15.2h-40c-9.6,0-16.8,7.2-16.8,16.8v120c0,4.8-4,8.8-8.8,8.8H16.8C7.2,276.8,0,284,0,293.6V320
		c0,8.8,7.2,16,16,16h47.2c4-25.6,26.4-45.6,52.8-45.6s48.8,20,52.8,45.6h197.6c4-25.6,26.4-45.6,52.8-45.6s48.8,20,52.8,45.6h24
		c8.8,0,16-7.2,16-16v-12.8c-1.6,0.8-3.2,0.8-4.8,0.8h-0.8c-11.2,0-20.8-4-28.8-12c-6.4-6.4-8-15.2-4.8-23.2
		C476,264,484,258.4,492.8,258.4L492.8,258.4z M436,271.2c0,4.8-4,8.8-8.8,8.8s-8.8-4-8.8-8.8v-16c0-4.8,4-8.8,8.8-8.8
		s8.8,4,8.8,8.8V271.2z M444,235.2c-13.6,0-24.8-11.2-24.8-24.8v-39.2c0-13.6,11.2-24.8,24.8-24.8h20.8c4.8,0,8.8,4,8.8,8.8
		s-4,8.8-8.8,8.8H444c-4.8,0-8,3.2-8,8v39.2c0,4.8,3.2,8,8,8h50.4c4.8,0,8.8,4,8.8,8.8s-4,8.8-8.8,8.8H444V235.2z M507.2,275.2
		h-13.6c-2.4,0-4,1.6-4.8,3.2c-0.8,0.8-0.8,3.2,0.8,4.8c4.8,4.8,10.4,7.2,16.8,7.2h0.8c3.2,0,4.8-2.4,4.8-4.8V280
		C512,277.6,509.6,275.2,507.2,275.2L507.2,275.2z"/>
</g>
</svg>
